# xmcd
#
# Track frame offsets:
#	150
#	13455
#	24898
#	37543
#	48981
#	61528
#	75604
#	87255
#	101787
#	116648
#
# Disc length: 1741 seconds
#
# Revision: 0
# Processed by: cddbd v1.5.2PL0 Copyright (c) Steve Scherf et al.
# Submitted via: audiograbber 1.83.01
#
DISCID=6b06cb0a
DTITLE=Lacy J. Dalton - Lacy J. Dalton
DYEAR=1980
DGENRE=Country
TTITLE0=Crazy Blue Eyes
TTITLE1=High Like An Angel
TTITLE2=Honky Tonk Man
TTITLE3=Carolina Come-On
TTITLE4=Beer Drinkin' Song
TTITLE5=Tennessee Waltz
TTITLE6=Late Night Kind Of Lonesome
TTITLE7=Losing Kind Of Love
TTITLE8=Are There Any Cowboys Left (In The Good Ol' U.S.A.)
TTITLE9=Turn My Head Around
EXTD=
EXTT0=
EXTT1=
EXTT2=
EXTT3=
EXTT4=
EXTT5=
EXTT6=
EXTT7=
EXTT8=
EXTT9=
PLAYORDER=
